<svg width="24" height="24" viewBox="0 0 24 24" fill="none" xmlns="http://www.w3.org/2000/svg">
<path d="M19.9173 5.25551C18.7193 3.80051 17.0543 3.0005 15.2283 3.0005C14.0793 3.0005 12.9703 3.2915 12.0003 3.8445C11.0303 3.2915 9.92134 3.0005 8.77234 3.0005C6.94634 3.0005 5.28134 3.80151 4.08334 5.25551C2.77434 6.84451 2.23034 9.01451 2.63034 11.0615C3.58534 15.9575 8.60432 19.3965 10.7183 20.6485C11.1143 20.8825 11.5563 20.9995 12.0003 20.9995C12.4443 20.9995 12.8873 20.8825 13.2823 20.6485C15.3953 19.3975 20.4143 15.9585 21.3693 11.0615C21.7693 9.01451 21.2263 6.84451 19.9173 5.25551ZM20.3883 10.8695C19.5113 15.3685 14.7703 18.6045 12.7723 19.7875C12.2953 20.0695 11.7043 20.0695 11.2273 19.7875C9.22932 18.6045 4.48933 15.3685 3.61133 10.8695C3.26833 9.11349 3.73334 7.25152 4.85434 5.89052C5.85934 4.67052 7.25033 3.9995 8.77133 3.9995C9.83633 3.9995 10.8593 4.2925 11.7293 4.8485C11.8933 4.9525 12.1033 4.9525 12.2673 4.8485C13.1373 4.2925 14.1603 3.9995 15.2253 3.9995C16.7463 3.9995 18.1383 4.67052 19.1423 5.89052C20.2663 7.25252 20.7313 9.11349 20.3883 10.8695Z" fill="#A8B3B9"/>
</svg>
