<svg width="40" height="40" viewBox="0 0 40 40" fill="none" xmlns="http://www.w3.org/2000/svg">
<circle cx="20" cy="20" r="20" fill="#EEF1F6"/>
<path d="M19.9991 20.6248C22.4116 20.6248 24.3741 18.6623 24.3741 16.2498C24.3741 13.8373 22.4116 11.8748 19.9991 11.8748C17.5866 11.8748 15.6241 13.8373 15.6241 16.2498C15.6241 18.6623 17.5866 20.6248 19.9991 20.6248ZM19.9991 13.1248C21.7225 13.1248 23.1241 14.5265 23.1241 16.2498C23.1241 17.9731 21.7225 19.3748 19.9991 19.3748C18.2758 19.3748 16.8741 17.9731 16.8741 16.2498C16.8741 14.5265 18.2758 13.1248 19.9991 13.1248ZM26.4575 24.9724V25.8148C26.4575 26.594 26.1733 27.3406 25.6566 27.9165C25.5333 28.0548 25.3625 28.1248 25.1908 28.1248C25.0425 28.1248 24.8933 28.0723 24.7741 27.9656C24.5166 27.7356 24.4958 27.3406 24.7258 27.0831C25.0366 26.7357 25.2083 26.2857 25.2083 25.8157V24.9732C25.2083 23.7115 24.3716 22.6198 23.1725 22.3189C22.9616 22.2656 22.735 22.2948 22.5508 22.399C20.9666 23.2807 19.0283 23.2773 17.4541 22.4014C17.2658 22.2939 17.0391 22.2631 16.8283 22.3181C15.6291 22.6198 14.7916 23.7115 14.7916 24.9732V25.8157C14.7916 26.2865 14.9633 26.7365 15.2741 27.0831C15.5041 27.3406 15.4824 27.7356 15.2258 27.9656C14.9674 28.1965 14.5725 28.174 14.3433 27.9173C13.8266 27.3406 13.5425 26.594 13.5425 25.8157V24.9732C13.5425 23.1382 14.7683 21.5482 16.5233 21.1065C17.0425 20.9748 17.6066 21.0499 18.0683 21.3132C19.26 21.9765 20.7367 21.979 21.9383 21.3106C22.3942 21.0506 22.9583 20.9765 23.4792 21.1073C25.2317 21.5465 26.4575 23.1365 26.4575 24.9724Z" fill="#485562"/>
</svg>
